{"accessors":[{"bufferView":0,"componentType":5126,"count":36,"max":[15.0,2.0,13.0],"min":[-15.0,-2.0,-13.0],"normalized":false,"type":"VEC3"},{"bufferView":1,"componentType":5126,"count":36,"max":[0.0,0.0,0.0000763009302318096,-1.0],"min":[-1.0,-1.0,-1.0,-1.0],"normalized":false,"type":"VEC4"},{"bufferView":2,"componentType":5126,"count":36,"max":[1.0,1.0,1.0],"min":[-1.0,-1.0,-1.0],"normalized":false,"type":"VEC3"},{"bufferView":3,"componentType":5126,"count":36,"max":[1.0,1.0],"min":[0.0,0.0],"normalized":false,"type":"VEC2"},{"bufferView":4,"componentType":5123,"count":36,"max":[35.0],"min":[0.0],"normalized":false,"type":"SCALAR"},{"bufferView":5,"componentType":5126,"count":36,"max":[13.5,1.0,11.0],"min":[-13.5,-1.0,-11.0],"normalized":false,"type":"VEC3"},{"bufferView":6,"componentType":5126,"count":36,"max":[0.0,0.0,0.0000763009302318096,-1.0],"min":[-1.0,-1.0,-1.0,-1.0],"normalized":false,"type":"VEC4"},{"bufferView":7,"componentType":5126,"count":36,"max":[1.0,1.0,1.0],"min":[-1.0,-1.0,-1.0],"normalized":false,"type":"VEC3"},{"bufferView":8,"componentType":5126,"count":36,"max":[1.0,1.0],"min":[0.0,0.0],"normalized":false,"type":"VEC2"},{"bufferView":9,"componentType":5123,"count":36,"max":[35.0],"min":[0.0],"normalized":false,"type":"SCALAR"},{"bufferView":10,"componentType":5126,"count":36,"max":[1.5,10.0,1.0],"min":[-1.5,-10.0,-1.0],"normalized":false,"type":"VEC3"},{"bufferView":11,"componentType":5126,"count":36,"max":[0.0,0.0,0.0000763009302318096,-1.0],"min":[-1.0,-1.0,-1.0,-1.0],"normalized":false,"type":"VEC4"},{"bufferView":12,"componentType":5126,"count":36,"max":[1.0,1.0,1.0],"min":[-1.0,-1.0,-1.0],"normalized":false,"type":"VEC3"},{"bufferView":13,"componentType":5126,"count":36,"max":[1.0,1.0],"min":[0.0,0.0],"normalized":false,"type":"VEC2"},{"bufferView":14,"componentType":5123,"count":36,"max":[35.0],"min":[0.0],"normalized":false,"type":"SCALAR"},{"bufferView":15,"componentType":5126,"count":36,"max":[1.5,10.0,1.0],"min":[-1.5,-10.0,-1.0],"normalized":false,"type":"VEC3"},{"bufferView":16,"componentType":5126,"count":36,"max":[0.0,0.0,0.0000763009302318096,-1.0],"min":[-1.0,-1.0,-1.0,-1.0],"normalized":false,"type":"VEC4"},{"bufferView":17,"componentType":5126,"count":36,"max":[1.0,1.0,1.0],"min":[-1.0,-1.0,-1.0],"normalized":false,"type":"VEC3"},{"bufferView":18,"componentType":5126,"count":36,"max":[1.0,1.0],"min":[0.0,0.0],"normalized":false,"type":"VEC2"},{"bufferView":19,"componentType":5123,"count":36,"max":[35.0],"min":[0.0],"normalized":false,"type":"SCALAR"},{"bufferView":20,"componentType":5126,"count":36,"max":[1.5,10.0,1.0],"min":[-1.5,-10.0,-1.0],"normalized":false,"type":"VEC3"},{"bufferView":21,"componentType":5126,"count":36,"max":[0.0,0.0,0.0000763009302318096,-1.0],"min":[-1.0,-1.0,-1.0,-1.0],"normalized":false,"type":"VEC4"},{"bufferView":22,"componentType":5126,"count":36,"max":[1.0,1.0,1.0],"min":[-1.0,-1.0,-1.0],"normalized":false,"type":"VEC3"},{"bufferView":23,"componentType":5126,"count":36,"max":[1.0,1.0],"min":[0.0,0.0],"normalized":false,"type":"VEC2"},{"bufferView":24,"componentType":5123,"count":36,"max":[35.0],"min":[0.0],"normalized":false,"type":"SCALAR"},{"bufferView":25,"componentType":5126,"count":36,"max":[1.5,10.0,1.0],"min":[-1.5,-10.0,-1.0],"normalized":false,"type":"VEC3"},{"bufferView":26,"componentType":5126,"count":36,"max":[0.0,0.0,0.0000763009302318096,-1.0],"min":[-1.0,-1.0,-1.0,-1.0],"normalized":false,"type":"VEC4"},{"bufferView":27,"componentType":5126,"count":36,"max":[1.0,1.0,1.0],"min":[-1.0,-1.0,-1.0],"normalized":false,"type":"VEC3"},{"bufferView":28,"componentType":5126,"count":36,"max":[1.0,1.0],"min":[0.0,0.0],"normalized":false,"type":"VEC2"},{"bufferView":29,"componentType":5123,"count":36,"max":[35.0],"min":[0.0],"normalized":false,"type":"SCALAR"}],"asset":{"generator":"Godot Engine v4.5.1.stable.official@f62fdbde15035c5576dad93e586201f4d41ef0cb","version":"2.0"},"bufferViews":[{"buffer":0,"byteLength":432,"byteStride":12,"target":34962},{"buffer":0,"byteLength":576,"byteOffset":432,"byteStride":16,"target":34962},{"buffer":0,"byteLength":432,"byteOffset":1008,"byteStride":12,"target":34962},{"buffer":0,"byteLength":288,"byteOffset":1440,"byteStride":8,"target":34962},{"buffer":0,"byteLength":72,"byteOffset":1728,"target":34963},{"buffer":0,"byteLength":432,"byteOffset":1800,"byteStride":12,"target":34962},{"buffer":0,"byteLength":576,"byteOffset":2232,"byteStride":16,"target":34962},{"buffer":0,"byteLength":432,"byteOffset":2808,"byteStride":12,"target":34962},{"buffer":0,"byteLength":288,"byteOffset":3240,"byteStride":8,"target":34962},{"buffer":0,"byteLength":72,"byteOffset":3528,"target":34963},{"buffer":0,"byteLength":432,"byteOffset":3600,"byteStride":12,"target":34962},{"buffer":0,"byteLength":576,"byteOffset":4032,"byteStride":16,"target":34962},{"buffer":0,"byteLength":432,"byteOffset":4608,"byteStride":12,"target":34962},{"buffer":0,"byteLength":288,"byteOffset":5040,"byteStride":8,"target":34962},{"buffer":0,"byteLength":72,"byteOffset":5328,"target":34963},{"buffer":0,"byteLength":432,"byteOffset":5400,"byteStride":12,"target":34962},{"buffer":0,"byteLength":576,"byteOffset":5832,"byteStride":16,"target":34962},{"buffer":0,"byteLength":432,"byteOffset":6408,"byteStride":12,"target":34962},{"buffer":0,"byteLength":288,"byteOffset":6840,"byteStride":8,"target":34962},{"buffer":0,"byteLength":72,"byteOffset":7128,"target":34963},{"buffer":0,"byteLength":432,"byteOffset":7200,"byteStride":12,"target":34962},{"buffer":0,"byteLength":576,"byteOffset":7632,"byteStride":16,"target":34962},{"buffer":0,"byteLength":432,"byteOffset":8208,"byteStride":12,"target":34962},{"buffer":0,"byteLength":288,"byteOffset":8640,"byteStride":8,"target":34962},{"buffer":0,"byteLength":72,"byteOffset":8928,"target":34963},{"buffer":0,"byteLength":432,"byteOffset":9000,"byteStride":12,"target":34962},{"buffer":0,"byteLength":576,"byteOffset":9432,"byteStride":16,"target":34962},{"buffer":0,"byteLength":432,"byteOffset":10008,"byteStride":12,"target":34962},{"buffer":0,"byteLength":288,"byteOffset":10440,"byteStride":8,"target":34962},{"buffer":0,"byteLength":72,"byteOffset":10728,"target":34963}],"buffers":[{"byteLength":10800,"uri":"table0.bin"}],"extensionsUsed":["GODOT_single_root"],"materials":[{},{},{},{},{},{}],"meshes":[{"primitives":[{"attributes":{"NORMAL":2,"POSITION":0,"TANGENT":1,"TEXCOORD_0":3},"indices":4,"material":0,"mode":4}]},{"primitives":[{"attributes":{"NORMAL":7,"POSITION":5,"TANGENT":6,"TEXCOORD_0":8},"indices":9,"material":1,"mode":4}]},{"primitives":[{"attributes":{"NORMAL":12,"POSITION":10,"TANGENT":11,"TEXCOORD_0":13},"indices":14,"material":2,"mode":4}]},{"primitives":[{"attributes":{"NORMAL":17,"POSITION":15,"TANGENT":16,"TEXCOORD_0":18},"indices":19,"material":3,"mode":4}]},{"primitives":[{"attributes":{"NORMAL":22,"POSITION":20,"TANGENT":21,"TEXCOORD_0":23},"indices":24,"material":4,"mode":4}]},{"primitives":[{"attributes":{"NORMAL":27,"POSITION":25,"TANGENT":26,"TEXCOORD_0":28},"indices":29,"material":5,"mode":4}]}],"nodes":[{"children":[1,2,3,4,5,6],"name":"Table"},{"mesh":0,"name":"CSGBox3D2","translation":[15.0,-1.5,-8.5]},{"mesh":1,"name":"CSGBox3D23","translation":[14.5,-17.5,-8.5]},{"mesh":2,"name":"CSGBox3D32","translation":[1.5,-13.5,3.5]},{"mesh":3,"name":"CSGBox3D52","translation":[28.5,-13.5,3.5]},{"mesh":4,"name":"CSGBox3D62","translation":[28.5,-13.5,-20.5]},{"mesh":5,"name":"CSGBox3D42","translation":[1.5,-13.5,-20.5]}],"scene":0,"scenes":[{"nodes":[0]}]}